<svg width="22" height="24" viewBox="0 0 22 24" fill="none" xmlns="http://www.w3.org/2000/svg">
<path d="M10.9985 0.533134C11.8909 0.53328 12.6959 1.06499 13.0483 1.8847C13.3569 2.60368 13.2632 3.4233 12.8198 4.05071C14.1884 4.45586 15.3981 5.2817 16.2749 6.41497C17.215 7.63014 17.717 9.12676 17.6997 10.663V12.5976L17.7124 13.1318C17.8389 15.7974 18.9561 18.3268 20.8579 20.2177C21.0323 20.3906 21.0857 20.6534 20.9917 20.8808L20.9907 20.8818C20.896 21.1069 20.6763 21.2548 20.4292 21.2538V21.2548H13.9751C13.68 22.6544 12.4456 23.6697 11.0005 23.6699C9.55524 23.6699 8.32116 22.6545 8.02588 21.2548H1.5708V21.2538C1.32378 21.2547 1.104 21.1069 1.00928 20.8818L1.0083 20.8808C0.914319 20.6534 0.967672 20.3906 1.14209 20.2177C3.17061 18.201 4.3072 15.4577 4.30029 12.5976V10.4921C4.30037 8.97954 4.81235 7.51204 5.75342 6.32806C6.62786 5.22583 7.82512 4.42899 9.17334 4.04681C8.73246 3.41996 8.63996 2.60211 8.94775 1.8847C9.30023 1.06487 10.106 0.533134 10.9985 0.533134ZM9.27295 21.2548C9.52683 21.9795 10.2132 22.4782 10.9995 22.4784C11.786 22.4784 12.4731 21.9796 12.7271 21.2548H9.27295ZM11.2642 5.00384C9.76373 4.93197 8.29948 5.47748 7.2124 6.51458C6.12478 7.55105 5.51025 8.98892 5.51221 10.4921V12.5966L5.50244 13.1298C5.39775 15.6483 4.49245 18.068 2.92236 20.0419H19.0767C17.3963 17.9291 16.4791 15.305 16.4878 12.5966V10.6601C16.5123 9.22586 15.9837 7.83802 15.0103 6.78411C14.0378 5.73124 12.6953 5.09315 11.2642 5.00481V5.00384ZM11.0005 1.75481C10.4377 1.75481 9.98108 2.21058 9.98096 2.77337C9.98096 3.18514 10.2296 3.55686 10.6108 3.71478C10.9436 3.85205 11.3203 3.80317 11.605 3.59368L11.7212 3.49407C12.0121 3.20191 12.0989 2.76395 11.9419 2.38372C11.784 2.00272 11.4121 1.75497 11.0005 1.75481Z" fill="#213F7D" stroke="#213F7D" stroke-width="0.4"/>
</svg>
