<svg width="22" height="22" viewBox="0 0 22 22" fill="none" xmlns="http://www.w3.org/2000/svg">
<g clip-path="url(#clip0_5530_2782)">
<path d="M13.9977 9.68179C13.9977 9.81686 14.0328 10.0913 14.1178 10.382C14.2032 10.6741 14.3346 10.9667 14.5182 11.1505L14.6578 11.2902V11.4787C14.6578 12.3877 14.324 12.9833 13.8395 13.4054C13.3612 13.822 12.7391 14.0664 12.1735 14.2853C11.8334 14.4364 11.52 14.5391 11.1959 14.7189L11.109 14.7677L10.694 14.0207L10.6432 13.9289L10.736 13.882C11.1072 13.6959 11.4771 13.5482 11.8434 13.4015C12.4329 13.1618 12.8843 12.9657 13.1998 12.6984C13.5009 12.4433 13.68 12.1207 13.7203 11.6154C13.4856 11.3131 13.3318 10.94 13.233 10.6076C13.1352 10.2781 13.0886 9.98305 13.068 9.82632C12.6737 9.21067 12.4774 8.57634 12.5846 8.10269C12.4941 7.74721 12.4406 7.27889 12.5006 6.82144C12.561 6.36152 12.7373 5.902 13.1158 5.58707C13.3499 4.91212 13.8423 4.42475 14.4772 4.12613L14.4811 4.12515L14.6696 4.05289C15.5699 3.74249 16.7245 3.81043 17.7838 4.24722L18.0094 4.34683L18.0153 4.34879V4.34976L18.3453 4.5314L18.4205 4.57339L18.3903 4.65445L18.2809 4.94742L18.2799 4.94644C18.1112 5.42114 18.244 5.79222 18.4264 6.23062H18.4254C18.6452 6.74408 18.8763 7.39118 18.5455 8.18863C18.6116 8.62062 18.4547 9.24589 18.0621 9.8605C18.0416 10.0173 17.996 10.3129 17.8981 10.6427C17.7991 10.9758 17.6444 11.3499 17.4088 11.6525C17.4323 12.1563 17.6113 12.4784 17.9166 12.7336C18.2366 13.0008 18.6966 13.1971 19.2858 13.4367C19.8884 13.6742 20.595 13.9555 21.1471 14.465C21.7045 14.9795 22.1002 15.7217 22.1002 16.8664V17.3332H14.567V16.3996H21.151C21.0642 15.7553 20.8034 15.3419 20.4371 15.0373C20.044 14.7104 19.5282 14.5045 18.9567 14.2834C18.3911 14.0645 17.7689 13.8201 17.2906 13.4035C16.8063 12.9814 16.4733 12.3855 16.4733 11.4767V11.2882L16.6119 11.1496C16.7947 10.9668 16.9174 10.6754 16.9987 10.382C17.0791 10.0915 17.115 9.81316 17.1334 9.66714V9.53922L17.15 9.51382L17.2213 9.40933C17.418 9.08728 17.5244 8.81234 17.5768 8.61148C17.603 8.51108 17.6157 8.43024 17.6198 8.37222C17.6218 8.3431 17.621 8.3208 17.6198 8.30582C17.6183 8.28776 17.6163 8.28833 17.6207 8.29703V8.29605L17.5475 8.14957L17.528 8.10953L17.5446 8.06754L17.6168 7.88492L17.6217 7.87418L17.6676 7.7814C17.8711 7.32427 17.7172 6.97776 17.5426 6.48843V6.48746C17.3664 6.06557 17.1854 5.59068 17.2711 4.97964C16.4298 4.64816 15.5397 4.62589 14.8932 4.93179L14.8893 4.93375C14.4065 5.14084 14.1322 5.48232 13.9928 5.9689L13.9567 6.11343L13.9479 6.15054L13.9156 6.17203L13.8063 6.24332C13.6046 6.38325 13.4913 6.66772 13.4557 7.00601C13.4205 7.34026 13.4645 7.70187 13.5514 7.96304L13.5543 7.96988V7.97086L13.5905 8.11734L13.6002 8.15347L13.5836 8.18668L13.5143 8.32339C13.5113 8.33533 13.508 8.36767 13.5123 8.42398C13.5169 8.48306 13.5301 8.56198 13.5582 8.65933C13.6005 8.80571 13.6757 8.99198 13.8014 9.21207L13.944 9.44351L13.9508 9.45328H13.9498L13.9869 9.52652L13.9977 9.548V9.68179Z" fill="#DF18FF" stroke="#DF18FF" stroke-width="0.2"/>
<path d="M7.22363 4.52124C7.87989 4.52124 8.40008 4.66179 8.81445 4.90601C9.22883 5.1503 9.53199 5.49446 9.75879 5.89136C10.0967 6.48278 10.2696 7.19861 10.3965 7.88843L10.5127 8.56421V8.56519C10.6045 9.15342 10.6949 9.71383 10.8477 10.1814C11.0002 10.648 11.2096 11.0058 11.5273 11.2078L11.8555 11.3894L11.9502 11.4421L11.8906 11.532L11.6699 11.8621C11.153 12.6366 10.0063 13.3593 8.81836 13.7058C9.2264 14.8936 10.2109 15.2405 11.2891 15.6355H11.29C11.9098 15.8543 12.5973 16.0983 13.127 16.5476C13.6634 17.0027 14.0332 17.6634 14.0332 18.7V19.1667H-0.0996094V18.7C-0.0996044 17.6633 0.26994 17.0027 0.811523 16.5476C1.34566 16.0988 2.04121 15.8549 2.67969 15.6365L3.08887 15.4841C4.00038 15.1322 4.79456 14.7126 5.15039 13.7058C3.96318 13.3591 2.81656 12.6371 2.30078 11.863L2.08105 11.533L2.02051 11.4431L2.11523 11.3904L2.43945 11.2107L2.55957 11.1228C2.82242 10.9064 2.97265 10.6081 3.06152 10.2488C3.16393 9.83454 3.1826 9.34991 3.20117 8.83374C3.21952 8.17824 3.23734 7.42617 3.49707 6.77905C3.75845 6.12813 4.26233 5.58715 5.22949 5.33765C5.5379 5.032 6.14614 4.52133 7.22363 4.52124ZM7.22168 5.4519C6.41962 5.4519 6.04074 5.83108 5.78906 6.08276L5.69922 6.17261L5.67676 6.18042L5.56738 6.21655L5.55664 6.22046V6.21948C5.22817 6.29046 4.98107 6.40063 4.79395 6.5437C4.60762 6.68622 4.47571 6.86593 4.38086 7.08374C4.18848 7.52573 4.1504 8.11968 4.13184 8.87476V8.87573C4.11387 9.36866 4.09576 9.9007 3.9834 10.3972C3.87777 10.8638 3.68514 11.3036 3.3291 11.6589C3.88016 12.2061 4.87865 12.7454 5.81055 12.9177H5.81152L6.17871 12.991L6.27637 13.0105L6.25684 13.1082L6.18457 13.4753L6.18359 13.4773C5.95833 14.491 5.47697 15.1354 4.88574 15.5847C4.44573 15.919 3.9458 16.1438 3.4541 16.3357L2.96777 16.5203C2.41229 16.7242 1.92397 16.8937 1.55273 17.1589C1.21374 17.4011 0.975082 17.7232 0.887695 18.2332H13.0781C12.9907 17.7403 12.7532 17.418 12.4141 17.1716C12.1355 16.9693 11.7902 16.8182 11.4014 16.6697L10.999 16.5203C10.3608 16.283 9.65777 16.0305 9.06641 15.5847C8.4704 15.1353 7.98884 14.491 7.78223 13.4763V13.4753L7.70898 13.1082L7.68945 13.0105L7.78809 12.991L8.15527 12.9177H8.15625L8.33887 12.8796C9.21746 12.6745 10.1239 12.1682 10.6387 11.656C10.3147 11.3019 10.1061 10.8555 9.95801 10.3679C9.79984 9.84704 9.70652 9.27183 9.61523 8.70483V8.70386C9.4316 7.65571 9.25967 6.84207 8.91895 6.28882C8.75053 6.01551 8.54204 5.80856 8.27148 5.6687C7.99999 5.52837 7.65935 5.45195 7.22168 5.4519Z" fill="#DF18FF" stroke="#DF18FF" stroke-width="0.2"/>
</g>
<defs>
<clipPath id="clip0_5530_2782">
<rect width="22" height="22" fill="white"/>
</clipPath>
</defs>
</svg>
